Coordinates
version=1
nRows=17
nColumns=36
inDegrees=yes

Units are S.I. units (second, meters, Newtons, ...)
If the header above contains a line with 'inDegrees', this indicates whether rotational values are in degrees (yes) or radians (no).

endheader
time	pelvis_tilt	pelvis_list	pelvis_rotation	pelvis_tx	pelvis_ty	pelvis_tz	hip_flexion_r	hip_adduction_r	hip_rotation_r	knee_angle_r	knee_angle_r_beta	ankle_angle_r	subtalar_angle_r	mtp_angle_r	hip_flexion_l	hip_adduction_l	hip_rotation_l	knee_angle_l	knee_angle_l_beta	ankle_angle_l	subtalar_angle_l	mtp_angle_l	lumbar_extension	lumbar_bending	lumbar_rotation	arm_flex_r	arm_add_r	arm_rot_r	elbow_flex_r	pro_sup_r	arm_flex_l	arm_add_l	arm_rot_l	elbow_flex_l	pro_sup_l
      3.20000000	     -7.00813216	     -5.96757145	     -3.20414030	     -0.17461249	      0.93242334	     -0.49734838	      7.44235063	      7.49894296	     -1.37392491	      5.26992681	      0.09197757	      4.30590900	     -9.21889260	     -7.49999987	      5.03652440	    -20.12299262	    -13.05844959	      2.45201861	      0.04279580	      1.13493856	      7.44339425	     -7.49999987	     -3.34401991	     10.38701734	     -0.52667130	     -9.41477751	    -20.08218263	     13.21503280	    128.47131374	    110.67476979	    -10.09264204	    -11.50909789	     22.66202077	    120.01622370	    110.51528971
      3.21000000	     -7.09764423	     -5.99015369	     -3.17244666	     -0.17503726	      0.93221580	     -0.49697659	      7.70007764	      7.55370718	     -1.40436182	      5.53552480	      0.09661313	      4.39638097	     -9.37051726	     -7.49999987	      5.20429090	    -20.16445310	    -12.73904348	      2.49490313	      0.04354427	      1.02090482	      7.05425315	     -7.49999987	     -3.39203430	     10.35003153	     -0.45813269	     -9.14683802	    -20.08673534	     13.29252617	    128.56073905	    110.60643575	     -9.61050780	    -11.50787801	     22.94925949	    120.06177229	    110.30768313
      3.22000000	     -7.19329744	     -6.02977987	     -3.09245812	     -0.17540053	      0.93200498	     -0.49664105	      7.94697845	      7.62058103	     -1.52445015	      5.77022729	      0.10070946	      4.41795961	     -9.46691936	     -7.49999987	      5.41842058	    -20.22818407	    -12.41634308	      2.57107377	      0.04487370	      0.97546198	      6.76787411	     -7.49999987	     -3.40388191	     10.32389198	     -0.44104647	     -8.88836856	    -20.08629049	     13.30892382	    128.64329639	    110.64991382	     -9.11566889	    -11.53161231	     23.26670159	    120.09703864	    110.17524452
      3.23000000	     -7.28231117	     -6.05336483	     -3.01923124	     -0.17571761	      0.93181087	     -0.49619671	      8.14273176	      7.69131184	     -1.49403481	      5.92211774	      0.10336045	      4.25693563	     -9.94080268	     -7.49999987	      5.67412427	    -20.31430762	    -12.44337643	      2.75075562	      0.04800974	      1.15552795	      7.10762238	     -7.49999987	     -3.45390766	     10.30847316	     -0.56397977	     -8.46363219	    -20.08530102	     13.54064850	    128.73986363	    110.46826152	     -8.72637020	    -11.55762678	     23.49651055	    120.23252568	    109.92813486
      3.24000000	     -7.41257183	     -6.06208814	     -2.88113559	     -0.17603440	      0.93158782	     -0.49579706	      8.44907531	      7.71524662	     -1.78669715	      6.20946747	      0.10837565	      4.48169101	     -9.75897607	     -7.49999987	      5.95768339	    -20.34434030	    -12.02966865	      2.83200749	      0.04942786	      0.99503114	      6.74741059	     -7.49999987	     -3.47417222	     10.31863402	     -0.85452172	     -7.93915385	    -20.06611979	     13.93802998	    128.72263080	    111.01588868	     -8.42677315	    -11.52947921	     23.55016435	    120.31969408	    110.55470819
      3.25000000	     -7.54483875	     -6.09433816	     -2.76697057	     -0.17641971	      0.93138437	     -0.49529098	      8.66696792	      7.81015383	     -1.66444410	      6.29007461	      0.10978251	      4.11450219	    -10.49435879	     -7.49999987	      6.25405250	    -20.42663863	    -11.73633981	      2.95742718	      0.05161684	      0.98024363	      6.73093506	     -7.49999987	     -3.50659715	     10.34848955	     -1.08988682	     -7.40143217	    -20.02069859	     14.43812142	    128.75071896	    110.53608774	     -8.09899522	    -11.50357553	     23.72216701	    120.48824320	    110.01642552
      3.26000000	     -7.65835764	     -6.09500490	     -2.67510929	     -0.17690456	      0.93119594	     -0.49485489	      8.90862629	      7.84296680	     -1.65542216	      6.46713359	      0.11287277	      4.08674037	    -10.73885765	     -7.49999987	      6.54378017	    -20.46722960	    -11.52616835	      3.10636396	      0.05421628	      0.96436618	      6.65072988	     -7.49999987	     -3.57356639	     10.31648682	     -1.16371861	     -6.99375385	    -19.98465147	     14.76033664	    128.85075539	    110.10587481	     -7.61534470	    -11.51184782	     24.06800935	    120.62279090	    109.55301828
      3.27000000	     -7.78353402	     -6.09888299	     -2.55273698	     -0.17741374	      0.93097976	     -0.49461131	      9.21060806	      7.84063040	     -1.90516372	      6.74505923	      0.11772349	      4.43013501	    -10.46139006	     -7.49999987	      6.81774250	    -20.46598126	    -11.06631754	      3.15890177	      0.05513324	      0.78044094	      6.08188651	     -7.49999987	     -3.61964185	     10.28670736	     -1.29598442	     -6.53768216	    -19.98208454	     14.99454279	    128.85309927	    110.81587955	     -7.11772963	    -11.51204800	     24.40809853	    120.69336844	    110.14969157
      3.28000000	     -7.93292790	     -6.12738505	     -2.43873494	     -0.17785857	      0.93070183	     -0.49423712	      9.42068277	      7.91870764	     -1.74064110	      6.77542580	      0.11825349	      4.03248121	    -11.20015777	     -7.49999987	      7.16609542	    -20.53375446	    -10.76526705	      3.33102181	      0.05813730	      0.77835650	      5.93081585	     -7.49999987	     -3.64266668	     10.29575401	     -1.35655674	     -6.18895705	    -19.98647254	     15.34548816	    129.05282244	    109.80905911	     -6.54817014	    -11.49927174	     24.92303010	    120.88725286	    109.06219045
      3.29000000	     -8.09325267	     -6.13160763	     -2.24023841	     -0.17831453	      0.93039474	     -0.49398500	      9.72958484	      7.91443922	     -2.06750798	      6.99171092	      0.12202838	      4.32931800	    -10.91129624	     -7.49999987	      7.58933702	    -20.55737115	    -10.29778930	      3.54138577	      0.06180884	      0.73920065	      5.61809277	     -7.49999987	     -3.64822599	     10.29789079	     -1.59182651	     -5.71427375	    -19.98035572	     15.75235819	    129.04902219	    110.63583107	     -6.04528127	    -11.48265835	     25.13499701	    120.94796175	    110.04470739
      3.30000000	     -8.25887224	     -6.11215562	     -2.04329169	     -0.17891787	      0.93011637	     -0.49378253	     10.03882196	      7.89153871	     -2.24300504	      7.16932472	      0.12512832	      4.42299788	    -10.98623439	     -7.49999987	      8.04456066	    -20.54325396	     -9.81415246	      3.77538481	      0.06589290	      0.62139570	      5.20604805	     -7.49999987	     -3.68723169	     10.28525510	     -1.79826245	     -5.22841944	    -19.96600902	     16.18902855	    129.12246879	    110.59793410	     -5.51834455	    -11.49150902	     25.45668853	    121.07827680	    110.33144747
      3.31000000	     -8.40536682	     -6.10585762	     -1.91397867	     -0.17963767	      0.92987896	     -0.49354625	     10.29720900	      7.91258696	     -2.13227231	      7.26747275	      0.12684133	      4.06541118	    -11.74666954	     -7.49999987	      8.48322958	    -20.56570875	     -9.54064727	      4.05389525	      0.07075382	      0.56085893	      5.02642053	     -7.49999987	     -3.76674323	     10.28084901	     -1.83236308	     -4.81355854	    -19.94415898	     16.55693815	    129.37314692	    109.34402785	     -4.86099902	    -11.52179974	     26.02769021	    121.21077992	    109.21617055
      3.32000000	     -8.56257224	     -6.06770530	     -1.79285812	     -0.18039713	      0.92957384	     -0.49329997	     10.67932282	      7.87035492	     -2.30699806	      7.59131529	      0.13249345	      4.32532194	    -11.47643835	     -7.49999987	      8.93297804	    -20.54995219	     -9.15282042	      4.35826029	      0.07606599	      0.58948190	      4.81109004	     -7.49999987	     -3.84473146	     10.21299406	     -1.82556049	     -4.41909122	    -19.93428012	     16.74793697	    129.41356338	    110.17872674	     -4.12352454	    -11.49217903	     26.42326629	    121.20313082	    110.31337545
      3.33000000	     -8.73284456	     -6.08854985	     -1.72596346	     -0.18122122	      0.92920507	     -0.49293353	     11.04086235	      7.92691852	     -2.19529404	      7.84340241	      0.13689320	      4.31416162	    -11.95042436	     -7.49999987	      9.43807431	    -20.62670238	     -8.92936597	      4.75698656	      0.08302508	      0.60206467	      4.53153305	     -7.49999987	     -3.92990519	     10.20611850	     -1.73266706	     -4.01854059	    -19.96300359	     17.06228800	    129.59572959	    109.74519411	     -3.32970148	    -11.44347686	     26.97627362	    121.21764653	    110.20365826
      3.34000000	     -8.95782152	     -6.05471708	     -1.61958022	     -0.18208791	      0.92874950	     -0.49268331	     11.56220312	      7.89615174	     -2.32505276	      8.27389581	      0.14440672	      4.45034021	    -12.13959688	     -7.49999987	     10.04155501	    -20.61961806	     -8.59500269	      5.18864572	      0.09055895	      0.67664527	      4.22630094	     -7.49999987	     -3.98901616	     10.20025958	     -1.86727679	     -3.38038240	    -20.02039647	     17.61154871	    129.70668438	    109.66513911	     -2.70181152	    -11.43012002	     27.33849201	    121.33165113	    110.58362215
      3.35000000	     -9.21235480	     -6.03915091	     -1.51643045	     -0.18306508	      0.92826392	     -0.49248548	     12.12510339	      7.89639969	     -2.32068620	      8.72230846	      0.15223300	      4.46410660	    -12.67465540	     -7.49999987	     10.71367834	    -20.62691804	     -8.22101644	      5.66383298	      0.09885253	      0.68039259	      3.82874095	     -7.49999987	     -4.02921096	     10.24172257	     -2.07501308	     -2.61577250	    -20.07563669	     18.24365097	    129.78223871	    109.45034718	     -2.07988946	    -11.49842299	     27.80600245	    121.44708100	    110.55915185
      3.36000000	     -9.46987908	     -6.02160420	     -1.47447832	     -0.18419795	      0.92774668	     -0.49219719	     12.69368288	      7.92067964	     -2.04597278	      9.14690159	      0.15964355	      4.06307497	    -13.74229838	     -7.49999987	     11.39880722	    -20.64799787	     -7.84942907	      6.19493276	      0.10812197	      0.73845860	      3.53950054	     -7.49999987	     -4.06979048	     10.21998840	     -1.88206478	     -2.18116270	    -20.20469670	     18.65587664	    129.99238316	    108.55992636	     -1.11926836	    -11.58833720	     28.65168949	    121.52251371	    109.65415132
